<?xml version="1.0" encoding="UTF-8" standalone="no"?>
<!-- Created with Inkscape (http://www.inkscape.org/) -->

<svg
   width="512"
   height="512"
   viewBox="0 0 512 512"
   version="1.1"
   id="svg1"
   xmlns="http://www.w3.org/2000/svg"
   xmlns:svg="http://www.w3.org/2000/svg">
  <defs
     id="defs1" />
  <g
     id="layer1">
    <path
       style="fill:#ffe6d5"
       id="rect1"
       width="438.05942"
       height="438.05942"
       x="36.970291"
       y="36.970291"
       d="M 94.108479,36.970291 H 417.89152 c 31.65456,0 57.13819,25.483632 57.13819,57.138188 V 417.89152 c 0,31.65456 -25.48363,57.13819 -57.13819,57.13819 H 94.108479 c -31.654556,0 -57.138188,-25.48363 -57.138188,-57.13819 V 94.108479 c 0,-31.654556 25.483632,-57.138188 57.138188,-57.138188 z"
       ry="57.138187" />
    <path
       style="fill:#000000"
       id="rect2"
       width="210.2121"
       height="210.2121"
       x="81.122116"
       y="154.48473"
       ry="21.162291"
       d="m 102.28441,154.48473 h 167.88751 c 11.72391,0 21.16229,9.43838 21.16229,21.16229 v 167.88751 c 0,11.72391 -9.43838,21.16229 -21.16229,21.16229 H 102.28441 c -11.723912,0 -21.162294,-9.43838 -21.162294,-21.16229 V 175.64702 c 0,-11.72391 9.438382,-21.16229 21.162294,-21.16229 z"
       transform="matrix(0.7114094,0,0,0.7114094,14.882436,71.324683)" />
  </g>
</svg>
